<svg width="60" height="60" viewBox="0 0 60 60" fill="none" xmlns="http://www.w3.org/2000/svg">
<path d="M52.1632 0.47998H8.3032C4.0057 0.47998 0.509766 3.97779 0.509766 8.27717V52.1334C0.509766 56.4328 4.0057 59.9287 8.3032 59.9287H52.1632C56.4626 59.9287 59.9585 56.4328 59.9585 52.1334V8.27717C59.9585 3.97779 56.4626 0.47998 52.1632 0.47998ZM30.3607 52.3425C30.3607 52.3425 19.152 45.1012 12.9645 34.1072H15.3935C15.8163 34.739 17.9079 37.8872 17.9079 37.8872C18.0056 38.0351 18.1464 38.1493 18.3114 38.2143C18.4763 38.2793 18.6572 38.2919 18.8295 38.2504C19.0018 38.2089 19.1572 38.1153 19.2744 37.9824C19.3917 37.8494 19.4651 37.6836 19.4848 37.5075L21.0082 23.969L23.2385 33.3281C23.2819 33.5095 23.3829 33.672 23.5264 33.7912C23.6699 33.9103 23.8482 33.9798 24.0345 33.989C24.2203 34 24.4046 33.9499 24.5595 33.8466C24.7143 33.7432 24.8311 33.5921 24.8923 33.4162C24.8923 33.4162 25.5954 31.424 26.2179 29.6662L27.6457 33.5428C27.7685 33.8803 28.0929 34.1072 28.4538 34.1072H31.916C32.3388 34.739 34.4304 37.8872 34.4304 37.8872C34.5285 38.0345 34.6696 38.148 34.8344 38.2124C34.9993 38.2768 35.18 38.289 35.352 38.2472C35.5241 38.2063 35.6795 38.1133 35.7969 37.981C35.9143 37.8486 35.9881 37.6833 36.0082 37.5075L37.5326 23.9625L39.7676 33.3272C39.8097 33.5087 39.9099 33.6715 40.0531 33.7909C40.1963 33.9102 40.3745 33.9794 40.5607 33.9881C40.7464 33.9988 40.9305 33.9488 41.0852 33.8456C41.24 33.7424 41.357 33.5917 41.4185 33.4162L42.7404 29.6662L44.1682 33.5428C44.2292 33.7083 44.3394 33.8511 44.4841 33.9521C44.6288 34.053 44.8009 34.1071 44.9773 34.1072H48.057C41.771 45.0994 30.3598 52.3415 30.3598 52.3415L30.3607 52.3425ZM49.1557 32.0362L48.9757 32.3812H45.5791C45.2388 31.4494 43.5335 26.8237 43.5335 26.8237C43.4733 26.6565 43.3627 26.512 43.2169 26.4103C43.0712 26.3085 42.8975 26.2544 42.7197 26.2554C42.542 26.2564 42.3689 26.3125 42.2244 26.416C42.0798 26.5195 41.9709 26.6652 41.9126 26.8331L40.7623 30.0825L38.0623 18.7631C38.0157 18.5651 37.9006 18.39 37.7374 18.2686C37.5742 18.1472 37.3734 18.0874 37.1704 18.0998C36.9674 18.1121 36.7753 18.1958 36.628 18.336C36.4807 18.4763 36.3877 18.6641 36.3654 18.8662C36.3654 18.8662 34.9591 31.38 34.5541 34.9594L33.0963 32.7637C33.0172 32.6456 32.9103 32.5487 32.7848 32.4817C32.6594 32.4146 32.5195 32.3795 32.3773 32.3794H29.0548C28.7135 31.4475 27.011 26.8219 27.011 26.8219C26.9503 26.6548 26.8394 26.5107 26.6936 26.4091C26.5477 26.3076 26.374 26.2536 26.1963 26.2546C26.0186 26.2557 25.8455 26.3116 25.7009 26.4148C25.5562 26.5181 25.447 26.6635 25.3882 26.8312L24.2407 30.0806L21.5398 18.7612C21.4931 18.5642 21.3784 18.3899 21.2158 18.2691C21.0532 18.1484 20.8532 18.0889 20.651 18.1012C20.4482 18.1135 20.2561 18.1966 20.1084 18.3361C19.9607 18.4756 19.8667 18.6626 19.8429 18.8644C19.8429 18.8644 18.4366 31.3772 18.0326 34.9575C17.3041 33.8644 16.5748 32.7628 16.5748 32.7628C16.4956 32.6445 16.3885 32.5475 16.2629 32.4805C16.1373 32.4135 15.9971 32.3784 15.8548 32.3784H12.026L11.8629 32.0756C10.8841 29.8631 8.97352 24.4762 8.97352 20.1122C8.97352 15.059 12.5585 9.37498 19.2401 9.37498C29.1307 9.37498 30.3579 18.6009 30.3579 18.6009C30.3579 18.6009 31.6301 9.32998 41.5273 9.32998C48.4535 9.32998 52.0076 15.2297 52.0076 20.1131C52.0085 23.94 50.8038 29.1965 49.1538 32.0344L49.1557 32.0362Z" fill="#A64D79"/>
</svg>
