<svg id="svg" version="1.1" xmlns="http://www.w3.org/2000/svg" xmlns:xlink="http://www.w3.org/1999/xlink" width="400" height="400" viewBox="0, 0, 400,400"><g id="svgg"><path id="path0" d="M192.678 12.085 C 176.445 17.871,175.760 45.654,191.751 49.668 C 193.733 50.165,193.750 50.238,193.750 58.172 L 193.750 66.175 185.352 67.033 C 163.248 69.293,145.475 80.002,133.987 97.983 C 126.029 110.441,125.591 118.750,132.894 118.750 C 136.721 118.750,137.962 117.567,141.287 110.753 C 153.327 86.083,179.840 74.906,215.129 79.625 C 240.999 83.084,259.947 101.595,263.264 126.650 C 264.259 134.167,265.589 135.945,270.204 135.926 C 275.805 135.902,276.902 133.629,275.758 124.422 C 271.772 92.349,243.441 66.406,212.400 66.406 L 206.250 66.406 206.261 58.398 L 206.273 50.391 210.159 48.247 C 217.564 44.163,221.119 35.962,217.188 32.031 C 215.140 29.984,210.601 29.941,208.906 31.953 C 201.931 40.237,199.457 41.020,194.844 36.406 C 189.666 31.229,193.042 23.438,200.463 23.438 C 203.318 23.438,206.250 20.160,206.250 16.969 C 206.250 11.537,200.260 9.382,192.678 12.085 M164.844 106.310 C 145.432 115.079,148.203 144.739,168.847 149.167 C 170.985 149.625,179.700 150.000,188.214 150.000 C 206.273 150.000,207.813 149.505,207.813 143.693 C 207.813 137.779,206.967 137.500,189.037 137.500 C 177.523 137.500,172.723 137.217,170.873 136.429 C 163.148 133.137,161.887 123.981,168.449 118.819 C 171.688 116.271,228.312 116.271,231.551 118.819 C 239.561 125.120,235.015 137.500,224.691 137.500 C 220.433 137.500,218.070 144.120,221.028 147.765 C 222.316 149.353,223.174 149.598,227.191 149.526 C 250.421 149.109,256.529 115.965,235.156 106.310 C 231.808 104.797,230.137 104.722,200.000 104.722 C 169.863 104.722,168.192 104.797,164.844 106.310 M127.520 131.032 C 116.873 133.018,126.773 165.178,143.038 181.445 L 149.873 188.281 144.273 188.295 C 129.399 188.331,117.614 193.915,117.614 200.927 C 117.614 207.264,122.492 208.615,130.485 204.492 L 135.408 201.953 199.971 201.953 L 264.535 201.953 269.858 204.655 C 276.036 207.791,278.587 207.860,281.127 204.960 C 287.428 197.765,273.669 189.063,255.991 189.063 L 249.029 189.063 254.685 183.825 C 268.872 170.690,276.945 152.768,270.282 149.202 C 265.672 146.735,262.357 148.720,259.017 155.950 C 251.685 171.819,238.772 182.953,222.656 187.302 C 213.560 189.756,181.988 189.247,173.812 186.514 C 152.525 179.400,135.938 158.411,135.938 138.590 C 135.938 133.415,132.293 130.142,127.520 131.032 M176.136 162.074 C 174.928 163.283,174.219 164.884,174.219 166.406 C 174.219 167.928,174.928 169.530,176.136 170.739 L 178.054 172.656 199.828 172.656 C 224.559 172.656,225.000 172.543,225.000 166.217 C 225.000 160.400,223.973 160.156,199.469 160.156 L 178.054 160.156 176.136 162.074 M282.728 221.869 C 253.619 223.771,225.382 231.210,206.872 241.852 C 199.533 246.072,200.603 246.095,192.670 241.547 C 178.693 233.533,157.214 226.632,137.488 223.818 C 132.622 223.124,129.687 225.332,129.687 229.688 C 129.688 233.634,132.111 235.572,137.960 236.303 C 151.920 238.047,174.603 245.683,187.136 252.858 L 193.745 256.641 193.747 279.796 C 193.750 306.470,193.782 306.605,200.000 306.605 C 206.221 306.605,206.250 306.479,206.250 279.724 L 206.250 256.496 213.477 252.503 C 235.642 240.255,260.238 234.507,293.555 233.789 L 311.719 233.397 311.719 245.093 C 311.719 258.382,312.189 259.531,317.626 259.531 C 323.291 259.531,323.793 258.192,324.071 242.343 C 324.328 227.647,323.905 225.060,320.933 223.145 C 318.647 221.672,296.875 220.945,282.728 221.869 M84.375 222.406 C 75.250 223.345,75.781 220.530,75.781 267.969 C 75.781 314.326,75.618 313.281,82.876 313.281 C 88.445 313.281,88.281 314.520,88.281 272.266 L 88.281 234.375 101.426 234.375 C 116.259 234.375,117.969 233.741,117.969 228.234 C 117.969 222.265,105.976 220.185,84.375 222.406 M114.209 264.382 C 111.856 265.664,111.743 266.570,111.731 284.180 C 111.716 305.501,111.064 304.268,122.761 305.042 C 135.320 305.874,144.969 307.624,153.505 310.620 C 164.619 314.521,164.923 314.552,167.828 312.108 L 170.313 310.017 170.313 293.073 C 170.313 279.125,170.101 275.827,169.117 274.422 C 167.257 271.767,152.644 267.485,137.666 265.206 C 131.158 264.216,115.523 263.667,114.209 264.382 M264.453 265.693 C 239.757 267.686,228.906 271.030,228.906 276.649 C 228.906 281.655,233.384 283.518,241.165 281.750 C 248.966 279.977,262.996 278.271,274.928 277.646 C 286.910 277.018,288.290 276.361,288.269 271.289 C 288.243 264.760,285.116 264.025,264.453 265.693 M315.625 271.648 C 311.555 273.144,311.719 271.413,311.719 313.059 L 311.719 351.657 304.492 351.144 C 284.993 349.760,266.443 352.434,264.755 356.873 C 262.212 363.563,266.468 365.327,282.138 364.080 C 288.628 363.563,299.861 363.260,307.100 363.406 C 319.926 363.665,320.307 363.627,322.045 361.893 L 323.828 360.114 324.065 319.315 C 324.326 274.504,324.232 273.358,320.186 271.948 C 317.524 271.020,317.362 271.009,315.625 271.648 M141.016 277.810 C 144.883 278.445,150.420 279.670,153.320 280.531 L 158.594 282.097 158.594 290.163 L 158.594 298.228 153.320 296.753 C 145.997 294.706,134.915 292.976,129.102 292.972 L 124.219 292.969 124.219 284.298 L 124.219 275.628 129.102 276.141 C 131.787 276.424,137.148 277.175,141.016 277.810 M264.844 288.255 C 235.351 290.702,222.891 296.420,230.821 303.870 C 233.038 305.953,235.066 305.881,249.609 303.207 C 254.336 302.338,264.355 301.227,271.875 300.740 C 287.476 299.728,288.281 299.404,288.281 294.141 C 288.281 287.924,283.452 286.712,264.844 288.255 M195.449 319.777 C 193.778 321.555,193.750 321.999,193.750 346.339 C 193.750 359.954,193.626 371.094,193.474 371.094 C 193.322 371.094,189.191 369.198,184.294 366.881 C 161.677 356.181,134.382 350.808,102.539 350.790 L 88.281 350.781 88.281 338.402 C 88.281 324.269,87.948 323.438,82.286 323.438 C 76.410 323.438,76.172 324.217,76.172 343.420 C 76.172 365.646,73.555 363.470,100.529 363.665 C 141.402 363.961,170.573 371.163,193.755 386.685 C 200.634 391.291,200.794 391.315,204.538 388.312 C 212.304 382.085,228.239 374.794,242.969 370.728 C 252.765 368.025,254.795 365.652,251.977 360.202 C 249.079 354.598,232.973 358.021,211.694 368.762 C 209.154 370.045,206.890 371.094,206.663 371.094 C 206.436 371.094,206.250 359.905,206.250 346.230 L 206.250 321.366 204.442 319.667 C 201.964 317.340,197.689 317.392,195.449 319.777 " stroke="none" fill="#ffda6bd1" fill-rule="evenodd"></path></g></svg>
