<svg id="svg" xmlns="http://www.w3.org/2000/svg" xmlns:xlink="http://www.w3.org/1999/xlink" width="400" height="400" viewBox="0, 0, 400,400"><g id="svgg"><path id="path0" d="M12.500 200.000 L 12.500 387.500 200.000 387.500 L 387.500 387.500 387.500 200.000 L 387.500 12.500 200.000 12.500 L 12.500 12.500 12.500 200.000 M114.063 33.824 C 115.576 34.589,116.016 35.417,116.016 37.500 C 116.016 42.190,116.244 42.164,75.000 42.164 C 33.756 42.164,33.984 42.190,33.984 37.500 C 33.984 32.810,33.756 32.836,75.000 32.836 C 103.369 32.836,112.569 33.068,114.063 33.824 M366.325 34.691 C 368.413 36.581,368.413 38.418,366.325 40.309 C 364.636 41.838,298.407 43.111,289.260 41.790 C 284.161 41.054,282.556 35.390,286.937 33.598 C 290.783 32.026,364.502 33.041,366.325 34.691 M76.563 65.074 C 78.076 65.839,78.516 66.667,78.516 68.750 C 78.516 73.130,77.159 73.414,56.250 73.414 C 35.341 73.414,33.984 73.130,33.984 68.750 C 33.984 64.370,35.341 64.086,56.250 64.086 C 69.502 64.086,75.153 64.360,76.563 65.074 M201.563 65.074 C 203.076 65.839,203.516 66.667,203.516 68.750 C 203.516 73.130,202.159 73.414,181.250 73.414 C 160.341 73.414,158.984 73.130,158.984 68.750 C 158.984 64.370,160.341 64.086,181.250 64.086 C 194.502 64.086,200.153 64.360,201.563 65.074 M264.063 65.074 C 265.576 65.839,266.016 66.667,266.016 68.750 C 266.016 73.130,264.659 73.414,243.750 73.414 C 222.841 73.414,221.484 73.130,221.484 68.750 C 221.484 64.370,222.841 64.086,243.750 64.086 C 257.002 64.086,262.653 64.360,264.063 65.074 M364.063 65.074 C 365.576 65.839,366.016 66.667,366.016 68.750 C 366.016 73.440,366.244 73.414,325.000 73.414 C 283.756 73.414,283.984 73.440,283.984 68.750 C 283.984 64.060,283.756 64.086,325.000 64.086 C 353.369 64.086,362.569 64.318,364.063 65.074 M76.563 96.324 C 78.076 97.089,78.516 97.917,78.516 100.000 C 78.516 104.380,77.159 104.664,56.250 104.664 C 35.341 104.664,33.984 104.380,33.984 100.000 C 33.984 95.620,35.341 95.336,56.250 95.336 C 69.502 95.336,75.153 95.610,76.563 96.324 M364.063 102.574 C 365.576 103.339,366.016 104.167,366.016 106.250 C 366.016 109.847,363.780 110.914,356.250 110.914 C 348.720 110.914,346.484 109.847,346.484 106.250 C 346.484 102.653,348.720 101.586,356.250 101.586 C 359.473 101.586,362.988 102.030,364.063 102.574 M126.172 126.140 C 136.550 127.298,145.565 132.354,158.969 144.535 C 176.298 160.282,185.917 160.436,202.734 145.237 C 220.058 129.580,228.286 125.657,243.712 125.700 C 269.564 125.772,285.329 141.193,300.421 181.170 C 302.534 186.767,306.328 194.621,309.409 199.776 C 326.226 227.912,329.056 255.153,317.029 273.134 C 303.891 292.776,276.091 305.618,246.880 305.539 C 234.472 305.505,234.532 305.510,214.844 302.489 C 202.695 300.624,198.953 300.391,181.250 300.391 C 163.547 300.391,159.805 300.624,147.656 302.489 C 127.980 305.509,128.032 305.503,115.620 305.550 C 80.537 305.681,47.289 286.406,39.743 261.563 C 34.933 245.729,40.517 220.461,53.606 198.828 C 56.347 194.297,60.240 186.094,62.874 179.297 C 77.942 140.418,96.704 122.840,120.313 125.486 C 121.387 125.606,124.023 125.901,126.172 126.140 M364.063 133.824 C 365.576 134.589,366.016 135.417,366.016 137.500 C 366.016 141.097,363.780 142.164,356.250 142.164 C 348.720 142.164,346.484 141.097,346.484 137.500 C 346.484 133.903,348.720 132.836,356.250 132.836 C 359.473 132.836,362.988 133.280,364.063 133.824 M364.063 165.074 C 365.576 165.839,366.016 166.667,366.016 168.750 C 366.016 172.347,363.780 173.414,356.250 173.414 C 348.720 173.414,346.484 172.347,346.484 168.750 C 346.484 165.153,348.720 164.086,356.250 164.086 C 359.473 164.086,362.988 164.530,364.063 165.074 M133.881 182.644 C 100.775 194.440,89.614 235.626,111.291 266.005 C 122.035 281.060,141.541 285.938,157.929 277.668 C 168.042 272.564,172.277 255.670,166.725 242.578 C 162.059 231.577,161.887 225.150,165.950 213.672 C 171.399 198.282,168.818 189.559,157.031 183.525 C 152.141 181.021,139.757 180.550,133.881 182.644 M209.375 181.939 C 194.683 186.740,190.672 196.593,196.540 213.464 C 200.184 223.940,200.139 233.292,196.406 241.016 C 190.022 254.225,194.063 272.365,204.571 277.668 C 245.642 298.394,281.708 237.565,251.195 199.030 C 240.671 185.738,221.599 177.944,209.375 181.939 M364.063 196.324 C 365.576 197.089,366.016 197.917,366.016 200.000 C 366.016 204.129,364.177 204.664,350.000 204.664 C 335.823 204.664,333.984 204.129,333.984 200.000 C 333.984 195.871,335.823 195.336,350.000 195.336 C 358.213 195.336,362.738 195.653,364.063 196.324 M364.063 227.574 C 365.576 228.339,366.016 229.167,366.016 231.250 C 366.016 234.847,363.780 235.914,356.250 235.914 C 348.720 235.914,346.484 234.847,346.484 231.250 C 346.484 227.653,348.720 226.586,356.250 226.586 C 359.473 226.586,362.988 227.030,364.063 227.574 M364.063 258.824 C 365.576 259.589,366.016 260.417,366.016 262.500 C 366.016 266.097,363.780 267.164,356.250 267.164 C 348.720 267.164,346.484 266.097,346.484 262.500 C 346.484 258.903,348.720 257.836,356.250 257.836 C 359.473 257.836,362.988 258.280,364.063 258.824 M364.063 290.074 C 365.576 290.839,366.016 291.667,366.016 293.750 C 366.016 297.347,363.780 298.414,356.250 298.414 C 348.720 298.414,346.484 297.347,346.484 293.750 C 346.484 290.153,348.720 289.086,356.250 289.086 C 359.473 289.086,362.988 289.530,364.063 290.074 M41.182 335.938 C 42.545 338.647,42.541 361.366,41.176 364.063 C 39.767 366.847,35.244 366.847,33.796 364.063 C 32.325 361.232,32.754 336.712,34.308 334.843 C 35.956 332.862,39.954 333.498,41.182 335.938 M166.182 335.938 C 166.845 337.256,167.164 341.827,167.164 350.000 C 167.164 364.177,166.629 366.016,162.500 366.016 C 158.214 366.016,157.746 364.264,157.992 349.141 C 158.227 334.683,158.647 333.340,162.806 333.749 C 164.435 333.909,165.512 334.608,166.182 335.938 M291.182 335.938 C 291.845 337.256,292.164 341.827,292.164 350.000 C 292.164 364.177,291.629 366.016,287.500 366.016 C 283.214 366.016,282.746 364.264,282.992 349.141 C 283.227 334.683,283.647 333.340,287.806 333.749 C 289.435 333.909,290.512 334.608,291.182 335.938 M72.432 348.438 C 75.485 354.505,73.074 366.016,68.750 366.016 C 64.896 366.016,63.951 363.796,64.230 355.392 C 64.487 347.643,65.412 345.891,69.056 346.249 C 70.685 346.409,71.762 347.108,72.432 348.438 M103.682 348.438 C 106.735 354.505,104.324 366.016,100.000 366.016 C 96.146 366.016,95.201 363.796,95.480 355.392 C 95.737 347.643,96.662 345.891,100.306 346.249 C 101.935 346.409,103.012 347.108,103.682 348.438 M134.932 348.438 C 137.985 354.505,135.574 366.016,131.250 366.016 C 127.396 366.016,126.451 363.796,126.730 355.392 C 126.987 347.643,127.912 345.891,131.556 346.249 C 133.185 346.409,134.262 347.108,134.932 348.438 M197.432 348.438 C 200.485 354.505,198.074 366.016,193.750 366.016 C 189.896 366.016,188.951 363.796,189.230 355.392 C 189.487 347.643,190.412 345.891,194.056 346.249 C 195.685 346.409,196.762 347.108,197.432 348.438 M228.682 348.438 C 231.735 354.505,229.324 366.016,225.000 366.016 C 221.146 366.016,220.201 363.796,220.480 355.392 C 220.737 347.643,221.662 345.891,225.306 346.249 C 226.935 346.409,228.012 347.108,228.682 348.438 M259.932 348.438 C 262.985 354.505,260.574 366.016,256.250 366.016 C 252.396 366.016,251.451 363.796,251.730 355.392 C 251.987 347.643,252.912 345.891,256.556 346.249 C 258.185 346.409,259.262 347.108,259.932 348.438 M322.432 348.438 C 325.485 354.505,323.074 366.016,318.750 366.016 C 314.896 366.016,313.951 363.796,314.230 355.392 C 314.487 347.643,315.412 345.891,319.056 346.249 C 320.685 346.409,321.762 347.108,322.432 348.438 M353.682 348.438 C 356.735 354.505,354.324 366.016,350.000 366.016 C 346.146 366.016,345.201 363.796,345.480 355.392 C 345.737 347.643,346.662 345.891,350.306 346.249 C 351.935 346.409,353.012 347.108,353.682 348.438 " stroke="none" fill="#ffda6bd1" fill-rule="evenodd"></path></g></svg>