<svg width="31" height="31" viewBox="0 0 31 31" fill="none" xmlns="http://www.w3.org/2000/svg">
<path d="M15.36 30.72C14.713 30.72 14.17 30.266 14.033 29.659C11.139 29.395 8.445 28.282 6.205 26.424C5.973 26.609 5.679 26.72 5.36 26.72C4.61 26.72 4 26.11 4 25.36C4 25.041 4.11 24.747 4.295 24.514C2.438 22.274 1.324 19.58 1.06 16.687C0.454 16.55 0 16.007 0 15.36C0 14.713 0.454 14.17 1.061 14.033C1.325 11.139 2.438 8.446 4.296 6.205C4.11 5.973 4 5.679 4 5.36C4 4.61 4.61 4 5.36 4C5.679 4 5.973 4.11 6.206 4.295C8.446 2.438 11.14 1.324 14.034 1.06C14.17 0.454 14.713 0 15.36 0C16.007 0 16.55 0.454 16.687 1.061C19.581 1.325 22.274 2.438 24.514 4.296C24.747 4.11 25.041 4 25.36 4C26.11 4 26.72 4.61 26.72 5.36C26.72 5.679 26.609 5.973 26.424 6.206C28.282 8.446 29.396 11.14 29.659 14.034C30.265 14.171 30.72 14.714 30.72 15.361C30.72 16.008 30.266 16.551 29.659 16.688C29.395 19.582 28.281 22.276 26.424 24.515C26.609 24.747 26.72 25.041 26.72 25.361C26.72 26.111 26.11 26.721 25.36 26.721C25.041 26.721 24.747 26.61 24.514 26.425C22.275 28.282 19.58 29.397 16.687 29.66C16.55 30.266 16.007 30.72 15.36 30.72ZM15.36 28.72C15.007 28.72 14.72 29.007 14.72 29.36C14.72 29.713 15.007 30 15.36 30C15.713 30 16 29.713 16 29.36C16 29.007 15.713 28.72 15.36 28.72ZM6.631 25.842C8.757 27.616 11.316 28.682 14.066 28.94C14.243 28.395 14.756 28 15.359 28C15.962 28 16.475 28.396 16.653 28.94C19.403 28.682 21.962 27.617 24.088 25.842C24.031 25.692 24 25.53 24 25.36C24 24.61 24.61 24 25.36 24C25.53 24 25.692 24.031 25.842 24.089C27.616 21.963 28.682 19.404 28.94 16.654C28.395 16.476 28 15.963 28 15.36C28 14.757 28.396 14.244 28.94 14.067C28.682 11.317 27.617 8.758 25.842 6.632C25.692 6.689 25.53 6.72 25.36 6.72C24.61 6.72 24 6.11 24 5.36C24 5.191 24.031 5.028 24.089 4.878C21.963 3.104 19.404 2.038 16.654 1.78C16.476 2.325 15.963 2.72 15.36 2.72C14.757 2.72 14.244 2.325 14.067 1.781C11.317 2.039 8.758 3.105 6.632 4.879C6.689 5.028 6.72 5.191 6.72 5.36C6.72 6.11 6.11 6.72 5.36 6.72C5.19 6.72 5.027 6.689 4.878 6.632C3.104 8.758 2.039 11.317 1.781 14.067C2.325 14.244 2.72 14.757 2.72 15.36C2.72 15.963 2.325 16.476 1.781 16.654C2.039 19.404 3.105 21.963 4.879 24.089C5.028 24.031 5.191 24 5.36 24C6.11 24 6.72 24.61 6.72 25.36C6.72 25.53 6.689 25.692 6.631 25.842ZM25.36 24.72C25.007 24.72 24.72 25.007 24.72 25.36C24.72 25.713 25.007 26 25.36 26C25.713 26 26 25.713 26 25.36C26 25.007 25.713 24.72 25.36 24.72ZM5.36 24.72C5.007 24.72 4.72 25.007 4.72 25.36C4.72 25.713 5.007 26 5.36 26C5.713 26 6 25.713 6 25.36C6 25.007 5.713 24.72 5.36 24.72ZM29.36 14.72C29.007 14.72 28.72 15.007 28.72 15.36C28.72 15.713 29.007 16 29.36 16C29.713 16 30 15.713 30 15.36C30 15.007 29.713 14.72 29.36 14.72ZM1.36 14.72C1.007 14.72 0.72 15.007 0.72 15.36C0.72 15.713 1.007 16 1.36 16C1.713 16 2 15.713 2 15.36C2 15.007 1.713 14.72 1.36 14.72ZM25.36 4.72C25.007 4.72 24.72 5.007 24.72 5.36C24.72 5.713 25.007 6 25.36 6C25.713 6 26 5.713 26 5.36C26 5.007 25.713 4.72 25.36 4.72ZM5.36 4.72C5.007 4.72 4.72 5.007 4.72 5.36C4.72 5.713 5.007 6 5.36 6C5.713 6 6 5.713 6 5.36C6 5.007 5.713 4.72 5.36 4.72ZM15.36 0.72C15.007 0.72 14.72 1.007 14.72 1.36C14.72 1.713 15.007 2 15.36 2C15.713 2 16 1.713 16 1.36C16 1.007 15.713 0.72 15.36 0.72ZM16.36 24.72C15.965 24.72 15.609 24.55 15.36 24.281C15.111 24.551 14.755 24.72 14.36 24.72C13.61 24.72 13 24.11 13 23.36V12.72H8.943L10.679 16.193C10.705 16.243 10.72 16.3 10.72 16.36C10.72 17.662 9.661 18.72 8.36 18.72C7.059 18.72 6 17.662 6 16.36C6 16.299 6.015 16.242 6.041 16.193L7.831 12.613C7.343 12.406 7 11.922 7 11.36C7 10.61 7.61 10 8.36 10H13.427C13.152 9.61 13 9.13 13 8.61C13 7.309 14.059 6.25 15.36 6.25C16.662 6.25 17.72 7.309 17.72 8.61C17.72 9.13 17.568 9.61 17.293 10H22.36C23.11 10 23.72 10.61 23.72 11.36C23.72 11.922 23.376 12.406 22.889 12.613L24.678 16.193C24.704 16.243 24.72 16.3 24.72 16.36C24.72 17.662 23.661 18.72 22.36 18.72C21.059 18.72 20 17.661 20 16.36C20 16.299 20.016 16.242 20.042 16.193L21.778 12.72H17.72V23.36C17.72 24.11 17.11 24.72 16.36 24.72ZM15.72 23.36C15.72 23.713 16.007 24 16.36 24C16.713 24 17 23.713 17 23.36V12.36C17 12.161 17.161 12 17.36 12H22.36C22.713 12 23 11.713 23 11.36C23 11.007 22.713 10.72 22.36 10.72H16.36C16.195 10.72 16.052 10.609 16.011 10.449C15.97 10.289 16.044 10.122 16.188 10.044C16.697 9.768 17 9.232 17 8.61C17 7.706 16.265 6.97 15.36 6.97C14.455 6.97 13.72 7.706 13.72 8.61C13.72 9.231 14.024 9.767 14.532 10.044C14.677 10.123 14.75 10.29 14.709 10.449C14.668 10.609 14.524 10.72 14.36 10.72H8.36C8.007 10.72 7.72 11.007 7.72 11.36C7.72 11.713 8.007 12 8.36 12H13.36C13.559 12 13.72 12.161 13.72 12.36V23.36C13.72 23.713 14.007 24 14.36 24C14.713 24 15 23.713 15 23.36V17.36H15.72V23.36ZM20.759 16.72C20.924 17.451 21.579 17.999 22.36 17.999C23.141 17.999 23.796 17.451 23.961 16.72H20.759ZM6.76 16.72C6.924 17.452 7.579 18 8.36 18C9.141 18 9.796 17.452 9.96 16.721L6.76 16.72ZM20.942 16H23.778L22.36 13.165L20.942 16ZM6.943 16H9.778L8.36 13.165L6.943 16Z" fill="#A64D79"/>
</svg>
