<svg width="45" height="60" viewBox="0 0 45 60" fill="none" xmlns="http://www.w3.org/2000/svg">
<path d="M42.8535 56.8016C41.0236 58.9536 38.0878 59.9995 33.879 59.9995C33.8784 59.9995 33.8776 59.9995 33.8768 59.9995C32.1257 59.9993 30.1175 59.8113 27.9083 59.4409C9.41251 56.3397 8.47379 49.9321 8.47379 39.7335C8.47379 32.1605 13.2904 29.4535 16.263 28.504C14.4 26.6575 11.5932 23.1804 10.8538 18.4473C9.9695 12.787 13.0972 9.36078 14.7071 8.00715L13.1879 5.5531C12.9286 5.13405 12.9775 4.5942 13.3084 4.22905L15.4512 1.86234C15.6917 1.59642 16.0469 1.46402 16.4021 1.50659C16.7581 1.54915 17.0713 1.76172 17.2424 2.07684L19.1571 5.60175L19.9389 5.42594L19.5251 1.78328C19.4897 1.47037 19.5892 1.15691 19.799 0.921957C20.0088 0.687 20.3087 0.55266 20.6236 0.55266H23.8314C24.4359 0.55266 24.9282 1.03805 24.9371 1.64258L24.9736 4.19643L26.0146 4.16105L26.4861 0.945177C26.5721 0.360272 27.1051 -0.0535288 27.6908 0.00562504L30.4378 0.282045C31.0371 0.342305 31.478 0.871372 31.4291 1.47203L31.0703 5.87983L33.3654 8.69019C33.5578 8.92597 33.6446 9.23059 33.6053 9.53216C33.5661 9.83374 33.4041 10.106 33.1578 10.2849C33.1083 10.3208 28.1889 13.9107 26.5434 17.0079C25.5629 18.8539 25.6223 20.7722 26.1879 21.7129C26.3377 21.9622 26.5143 22.1173 26.6481 22.1173L26.6827 22.1145C26.8861 21.9879 27.183 21.0633 27.3795 20.4513C27.8002 19.14 28.3243 17.5083 29.5704 15.9982C31.5894 13.5521 34.8409 11.7073 37.1341 11.7073C37.8506 11.7073 38.4571 11.8812 38.9367 12.2237C40.7209 13.498 40.9495 17.6434 40.9769 18.8837C40.9885 19.4059 40.633 19.865 40.1247 19.9844L36.5487 20.8259C36.0014 20.9547 35.0571 21.2482 34.8868 21.7657C34.7807 22.0883 34.7669 23.1135 36.9282 25.6607C39.8975 29.1605 42.6899 33.0818 44.2235 42.5013C44.9554 46.9962 45.9574 53.1521 42.8535 56.8016ZM11.6816 26.9154C11.6488 26.8579 8.37705 21.1388 8.03677 17.7836C7.72939 14.7543 8.9238 13.3227 8.96444 13.2746C9.19387 13.0222 9.29393 12.6784 9.23561 12.3423C9.17728 12.0061 8.96748 11.7159 8.66646 11.5553C8.53405 11.4845 7.33107 10.8642 5.95671 10.8642C5.03789 10.8642 4.21858 11.1503 3.58752 11.6913C2.02049 13.0344 2.29249 18.2657 2.66151 21.6833C1.75209 22.5922 0.687594 24.8342 0.104901 30.1865C-0.780749 38.323 4.2266 43.8655 4.44027 44.0974C4.6545 44.3298 4.95137 44.4542 5.25378 44.4542C5.25765 44.4542 5.26152 44.4542 5.26539 44.4542C5.87296 44.4506 6.36471 43.957 6.36471 43.3486C6.36471 43.2736 6.35724 43.2007 6.34315 43.1302C6.27985 42.435 5.95505 38.2071 7.00462 34.329C8.07409 30.3762 11.2549 28.4365 11.2836 28.4194C11.8063 28.1123 11.9841 27.4411 11.6816 26.9154Z" fill="#A64D79"/>
</svg>
