<svg width="60" height="60" viewBox="0 0 60 60" fill="none" xmlns="http://www.w3.org/2000/svg">
<path d="M30.0001 59.9992C46.5684 59.9992 59.9997 46.5679 59.9997 29.9996C59.9997 13.4313 46.5684 0 30.0001 0C13.4318 0 0.000488281 13.4313 0.000488281 29.9996C0.000488281 46.5679 13.4318 59.9992 30.0001 59.9992Z" fill="#6A1E55"/>
<path d="M52.3145 50.0492C52.2039 49.2466 52.0679 48.4209 51.8903 47.5951C51.0222 43.5608 49.7818 41.3485 49.7818 40.6976C49.7818 40.047 49.4098 38.4853 48.7897 36.2731C48.1697 34.0608 48.6658 32.7591 48.0456 25.6016C47.4255 18.444 46.4334 17.9236 44.6968 17.2728C42.9602 16.6221 41.596 17.2728 39.6117 17.0125C37.627 16.7522 34.5266 16.3619 33.7822 15.711C33.2272 15.226 33.2241 12.8609 33.2585 11.6883C34.01 11.1114 34.5907 10.4964 34.6507 10.2453C34.7747 9.72498 35.0228 7.25199 35.0228 7.25199L36.139 5.5604C36.139 5.5604 37.0071 3.60842 36.511 3.34768C36.0149 3.08776 35.4454 4.36158 35.4454 4.36158C35.4454 4.36158 36.1388 1.52612 36.0149 0.615114L36.0131 0.602692C34.0704 0.207772 32.0597 0 30.0005 0C28.2608 0 26.5566 0.149765 24.898 0.43406C24.8825 0.492653 24.8671 0.552887 24.8523 0.615231C24.604 1.65632 25.1004 4.12919 25.1004 4.12919C25.1004 4.12919 24.2323 3.47857 24.1083 4.12919C23.984 4.77982 24.7285 6.34145 25.2245 6.47188C25.8447 6.86199 26.0927 8.16347 26.0927 8.81432C26.0927 9.46495 27.0848 11.2871 27.0848 11.2871C27.0848 11.2871 27.3132 11.4708 27.6713 11.7145C27.7046 12.8952 27.698 15.2302 27.1467 15.7118C26.4026 16.3627 23.3017 16.7531 21.3175 17.0133C19.3328 17.2736 17.9689 16.6232 16.2321 17.2736C14.4957 17.9247 13.5036 18.445 12.8832 25.6024C12.2631 32.7599 12.7593 34.0616 12.1391 36.2739C11.5189 38.4861 11.147 40.048 11.147 40.6984C11.147 41.3493 9.90681 43.5615 9.03857 47.5959C8.79564 48.7242 8.63064 49.8528 8.50244 50.9212C9.73431 52.187 11.0767 53.3445 12.5146 54.378C12.6531 53.8961 12.8491 53.3812 13.1316 52.8341C14.341 50.4915 15.2712 45.3187 15.9222 43.269C16.5733 41.2193 17.6895 38.8768 17.6895 38.3888C17.6895 37.9009 17.9686 30.1901 18.8057 28.6285C19.6432 27.0669 20.1082 27.2618 20.1082 27.2618C20.1082 27.2618 20.5732 29.5067 20.2942 31.8493C20.0152 34.1917 19.9222 34.3871 20.5733 37.6078C21.2244 40.8287 22.2475 42.0977 22.1546 43.8546C22.0617 45.6116 21.5967 44.8308 20.5733 47.1731C19.5855 49.4339 18.1941 50.3924 18.2097 57.5927C21.829 59.142 25.8146 60.0001 30.0006 60.0001C34.5476 60.0001 38.8573 58.987 42.7184 57.1763C42.6802 50.3546 41.3237 49.3892 40.3556 47.1728C39.3324 44.8302 38.8673 45.6112 38.7743 43.8544C38.6813 42.0976 39.7046 40.8288 40.3556 37.6076C41.0069 34.3869 40.914 34.1916 40.6348 31.849C40.3556 29.5066 40.8209 27.2615 40.8209 27.2615C40.8209 27.2615 41.2859 27.0666 42.1231 28.6283C42.9599 30.1897 43.2393 37.9004 43.2393 38.3885C43.2393 38.8766 44.3555 41.2191 45.0066 43.2688C45.6577 45.3185 46.5879 50.4915 47.7973 52.8339C47.974 53.1762 48.1167 53.5057 48.233 53.8226C49.7075 52.6927 51.0741 51.4293 52.3144 50.0498L52.3145 50.0492Z" fill="#A64D79"/>
<path d="M2.98399 16.9454H57.0165C58.927 20.8922 59.9987 25.3208 59.9987 29.9998C59.9987 32.9989 59.5565 35.8942 58.7375 38.6265H1.26263C0.443611 35.8942 0.00146484 32.999 0.00146484 29.9997C0.00146484 25.3207 1.07326 20.892 2.98363 16.9453L2.98399 16.9454Z" fill="#EEF3F7"/>
<path d="M49.4131 38.6262C49.2514 37.9603 49.0408 37.1701 48.7893 36.2731C48.1692 34.0608 48.6653 32.7591 48.0452 25.6016C47.425 18.444 46.4329 17.9236 44.6964 17.2727C42.9598 16.6221 41.5956 17.2727 39.6113 17.0125L39.0992 16.9453H21.8295L21.3173 17.0125C19.3327 17.2727 17.9687 16.6223 16.2319 17.2727C14.4955 17.9238 13.5034 18.4441 12.8831 25.6016C12.2629 32.7591 12.7591 34.0608 12.1389 36.2731C11.8874 37.1701 11.677 37.9603 11.5151 38.6262H17.6472C17.6744 38.5247 17.689 38.4437 17.689 38.3877C17.689 37.8998 17.968 30.1891 18.8052 28.6274C19.6426 27.0658 20.1076 27.2607 20.1076 27.2607C20.1076 27.2607 20.5726 29.5056 20.2937 31.8482C20.0147 34.1906 19.9216 34.386 20.5727 37.6068C20.6461 37.9703 20.7246 38.3087 20.8052 38.626H40.1223C40.2032 38.3087 40.2812 37.9703 40.3548 37.6068C41.0061 34.3861 40.9132 34.1908 40.6341 31.8482C40.3548 29.5057 40.8202 27.2607 40.8202 27.2607C40.8202 27.2607 41.2853 27.0658 42.1223 28.6274C42.9592 30.1888 43.2385 37.8996 43.2385 38.3877C43.2385 38.4437 43.2533 38.5244 43.2804 38.6262H49.4124H49.4131Z" fill="#3B1C32"/>
<path d="M2.98413 16.9454H57.0166C57.1069 17.1315 57.1949 17.3188 57.2812 17.507H2.71952C2.80589 17.3188 2.8939 17.1314 2.98413 16.9454ZM58.8999 38.065C58.8476 38.2528 58.7935 38.4398 58.7377 38.6262H1.26277C1.20699 38.4398 1.15297 38.2528 1.10059 38.065H58.8997H58.8999Z" fill="#FEFEFE"/>
<path d="M38.1928 32.5363C38.2971 32.1297 38.2975 31.7394 38.2708 31.4485C38.2864 31.4147 38.302 31.3815 38.3174 31.3464C38.7292 30.3989 38.3287 28.9634 38.2631 28.7436C38.4422 28.1695 38.4707 27.5424 38.445 26.9766C38.407 26.1351 38.1432 25.6824 37.9358 25.4525C38.0386 24.8452 37.9619 24.2316 37.743 23.5703C37.6506 23.2911 37.55 23.1222 37.4589 23.0194C37.4623 22.8228 37.4503 22.6034 37.4241 22.3495C37.3561 21.6992 37.0895 21.2693 36.8544 21.0079C36.8918 20.8752 36.9136 20.7433 36.9136 20.6142C36.9136 19.955 36.0933 19.4699 35.6535 19.2565C35.6917 19.1477 35.7086 19.0609 35.7007 19.0077C35.6368 18.5579 35.1902 18.4938 34.6795 18.5579C34.8072 20.6788 30.2119 21.8354 30.2119 21.8354C30.2119 21.8354 30.4675 22.5423 30.4034 22.735C33.0112 22.3413 34.5515 20.9649 35.2498 19.9841C35.5799 20.1833 36.1086 20.5582 36.02 20.8713C35.0627 23.0564 30.2758 23.4419 30.2758 23.4419C30.2758 23.4419 30.5314 24.3415 30.2758 24.4059C31.2331 24.3415 33.5309 23.9561 34.7434 23.2491C35.4728 22.8239 36.1082 22.2826 36.4999 21.7227C36.6066 21.9959 36.6922 22.4028 36.5945 22.928C36.4028 23.9561 34.3606 25.1772 33.9138 25.2415C33.467 25.3059 30.5312 25.2415 30.5312 25.2415L30.4674 26.1415C30.4674 26.1415 32.8288 26.463 33.7863 26.2059C34.7436 25.9488 35.8286 25.4347 36.5946 24.728C36.7613 24.574 36.8993 24.4325 37.0143 24.2923C36.9668 24.8469 36.8437 25.6054 36.5309 26.2702C35.9565 27.4913 34.6799 27.4913 33.5311 27.5556C32.3823 27.62 30.4675 26.5273 30.4675 26.5273L30.5314 27.3626C30.5314 27.3626 31.4887 27.8124 32.063 28.1338C32.6373 28.4553 34.2329 28.6479 35.5095 28.1982C36.4954 27.8507 37.2514 27.0056 37.6332 26.3126C38.4151 28.084 36.9459 29.3068 35.9561 29.8049C34.9349 30.319 30.6589 28.6482 30.6589 28.6482L30.4674 29.2907C30.4674 29.2907 31.68 29.6765 32.1266 29.8689C32.5735 30.0617 33.9136 30.9613 36.0837 30.5758C36.8624 30.4373 37.3916 30.1153 37.751 29.6958C38.366 30.8089 37.2438 31.6342 36.4029 32.1181C35.5095 32.6322 33.531 31.9894 32.7011 31.3469C31.8714 30.7041 30.595 30.0614 30.595 30.0614L30.4033 31.0254C30.4033 31.0254 30.7453 31.212 31.1526 31.4287C31.3634 31.7186 31.6417 32.1789 31.9838 32.7033C32.446 35.1527 34.1735 37.1306 36.0834 37.1306C38.0619 37.1306 38.1895 35.3312 38.3171 34.4957C38.396 33.981 38.305 33.4425 38.2236 33.1043C38.2223 32.8957 38.2094 32.7014 38.1928 32.5363ZM37.8785 33.3411C37.8069 34.285 37.1669 35.1914 35.9559 35.5239C35.2991 35.6811 34.4288 34.8513 33.7106 33.9638C34.2245 34.4415 34.887 34.7696 35.8283 34.817C36.8428 34.8679 37.4934 34.1072 37.8785 33.3411ZM35.9558 33.0819C36.6423 33.0163 37.127 32.8315 37.4973 32.5297C37.3043 33.0135 36.9071 33.6315 36.0834 34.0463C35.1015 34.4994 33.8325 33.2898 33.0468 32.3622C33.8085 32.7063 34.9955 33.1743 35.9558 33.0819ZM36.2112 36.5522C34.9188 36.8214 33.5962 35.0862 32.9151 34.0138C33.614 34.8959 34.463 35.7172 35.4454 36.038C36.6124 36.4192 37.3548 35.4277 37.8639 34.6097C37.727 35.3218 37.3341 36.2791 36.2112 36.5522Z" fill="#EEF3F7"/>
<path d="M22.3055 33.1042C22.2241 33.4421 22.1331 33.9808 22.2118 34.4955C22.3394 35.3308 22.4671 37.1305 24.4457 37.1305C26.3556 37.1305 28.0832 35.1528 28.5454 32.7031C28.8874 32.1786 29.1657 31.7182 29.3766 31.4285C29.7838 31.2118 30.1259 31.0253 30.1259 31.0253L29.9344 30.0613C29.9344 30.0613 28.658 30.7038 27.8283 31.3467C26.9986 31.9892 25.02 32.6321 24.1265 32.1179C23.2854 31.6339 22.1636 30.8087 22.7784 29.6957C23.1378 30.115 23.6669 30.4372 24.4457 30.5756C26.6156 30.9612 27.956 30.0615 28.4027 29.8687C28.8496 29.676 30.062 29.2905 30.062 29.2905L29.8705 28.648C29.8705 28.648 25.5944 30.319 24.5733 29.8048C23.5835 29.3066 22.1143 28.084 22.8961 26.3125C23.278 27.0054 24.0338 27.8508 25.0199 28.198C26.2963 28.6478 27.892 28.4551 28.4664 28.1337C29.0407 27.8122 29.998 27.3625 29.998 27.3625L30.0619 26.5272C30.0619 26.5272 28.1473 27.6196 26.9983 27.5555C25.8495 27.4911 24.5732 27.4911 23.9985 26.2701C23.6859 25.6053 23.5628 24.8467 23.5151 24.2922C23.6301 24.4322 23.7681 24.5738 23.9348 24.7279C24.7006 25.4347 25.7857 25.949 26.743 26.2057C27.7003 26.4628 30.0619 26.1414 30.0619 26.1414L29.998 25.2414C29.998 25.2414 27.062 25.3057 26.6154 25.2414C26.1687 25.1771 24.1265 23.956 23.9348 22.9279C23.8369 22.4029 23.9223 21.996 24.0293 21.7225C24.4212 22.2824 25.0564 22.8241 25.7858 23.249C26.9985 23.9558 29.2962 24.3414 30.2535 24.4057C29.9979 24.3414 30.2535 23.4418 30.2535 23.4418C30.2535 23.4418 25.4665 23.056 24.5092 20.8711C24.4203 20.5583 24.9492 20.1834 25.2794 19.9839C25.978 20.9648 27.5182 22.3411 30.1257 22.7349C30.0619 22.5421 30.3175 21.8352 30.3175 21.8352C30.3175 21.8352 25.7222 20.6785 25.8498 18.5578C25.3394 18.4934 24.8925 18.5578 24.8287 19.0075C24.8212 19.0607 24.8377 19.1476 24.8759 19.2563C24.4361 19.4695 23.6158 19.955 23.6158 20.614C23.6158 20.7429 23.6376 20.8748 23.6747 21.0078C23.4399 21.2693 23.1732 21.6989 23.1053 22.3493C23.0786 22.6036 23.0669 22.8229 23.0703 23.0193C22.9793 23.1221 22.8786 23.2908 22.7863 23.5702C22.5675 24.2314 22.4908 24.8451 22.5933 25.4523C22.3855 25.6822 22.122 26.1351 22.0841 26.9765C22.0585 27.5424 22.087 28.1691 22.266 28.7434C22.2004 28.9635 21.8002 30.3988 22.2118 31.3462C22.227 31.381 22.2427 31.4144 22.2583 31.4483C22.2313 31.7389 22.2319 32.1292 22.3363 32.5362C22.3198 32.7014 22.3068 32.896 22.3055 33.1042ZM24.7009 34.817C25.6422 34.7697 26.3044 34.4413 26.8186 33.9637C26.1008 34.8512 25.2299 35.6811 24.5733 35.5238C23.3619 35.1914 22.7223 34.2849 22.6507 33.3411C23.0357 34.1072 23.6863 34.8682 24.7009 34.817ZM27.4822 32.3618C26.6967 33.2891 25.4276 34.4988 24.4458 34.0459C23.6221 33.6311 23.2247 33.0133 23.0317 32.5294C23.4023 32.8311 23.8869 33.0159 24.5734 33.0815C25.5334 33.174 26.7204 32.7058 27.4822 32.3618ZM22.6655 34.6098C23.1747 35.4275 23.9168 36.4193 25.084 36.038C26.0664 35.7173 26.9154 34.8961 27.6143 34.0139C26.9335 35.0861 25.6106 36.8214 24.3182 36.5523C23.1951 36.2794 22.8024 35.3218 22.6655 34.6098Z" fill="#EEF3F7"/>
<path d="M29.8713 20.1533C29.8713 20.1533 28.914 19.3236 28.6587 19.3236C28.4033 19.3236 27.8928 19.8341 27.829 20.2809C27.7651 20.7277 28.0843 21.2382 28.4672 21.4297C28.8501 21.6212 29.1691 21.7488 29.1691 21.7488C29.1691 21.7488 29.233 29.663 29.4245 29.982C29.616 30.3014 30.3818 31.0669 30.3818 31.0669H30.3735C30.3735 31.0669 31.1393 30.3011 31.3308 29.982C31.5222 29.6629 31.5861 21.7488 31.5861 21.7488C31.5861 21.7488 31.9052 21.6212 32.2881 21.4297C32.671 21.238 32.99 20.7277 32.9263 20.2809C32.8624 19.8341 32.3519 19.3236 32.0966 19.3236C31.841 19.3236 30.8839 20.1533 30.8839 20.1533C30.8839 20.1533 30.4773 20.4403 29.8708 20.1533H29.8713Z" fill="#EEF3F7"/>
</svg>
