<svg id="svg" xmlns="http://www.w3.org/2000/svg" xmlns:xlink="http://www.w3.org/1999/xlink" width="400" height="400" viewBox="0, 0, 400,400"><g id="svgg"><path id="path0" d="M274.609 1.235 C 207.149 13.050,167.895 85.704,194.924 148.723 C 195.724 150.589,194.225 150.173,185.379 146.071 C 176.138 141.787,175.703 140.904,175.915 126.877 C 176.145 111.658,173.469 106.245,163.476 101.718 C 159.037 99.707,120.556 99.767,116.194 101.793 C 106.888 106.112,103.477 112.880,104.253 125.483 C 105.333 143.025,104.775 143.516,71.113 154.655 C 44.497 163.463,37.065 167.287,27.644 177.024 C 15.490 189.586,10.810 209.590,16.345 225.318 C 18.519 231.495,18.526 231.443,14.100 240.720 C 8.749 251.934,7.908 255.779,6.602 275.000 C 5.429 292.267,3.877 307.488,1.824 321.875 C -1.391 344.391,-0.025 393.862,3.927 398.069 L 5.741 400.000 21.875 400.000 C 40.842 400.000,39.381 400.679,44.595 389.437 C 53.646 369.925,56.985 354.904,57.016 333.573 C 57.036 319.874,59.660 299.495,61.672 297.412 C 62.432 296.625,64.418 304.462,65.679 313.222 C 66.835 321.260,66.242 333.973,64.310 342.578 C 59.928 362.086,66.014 391.772,75.722 398.244 L 78.396 400.027 140.710 399.818 L 203.023 399.609 205.477 397.266 C 214.946 388.224,219.581 363.156,215.610 342.460 C 212.663 327.104,214.713 293.359,218.370 297.016 C 220.119 298.764,224.124 330.753,223.103 334.819 C 220.132 346.659,233.834 395.166,241.275 399.148 C 244.269 400.751,273.715 400.268,275.797 398.582 C 280.936 394.420,281.779 349.755,277.353 316.144 C 275.717 303.716,273.848 283.310,273.015 268.768 C 272.357 257.277,270.536 250.290,265.526 240.031 L 261.496 231.780 263.259 226.632 C 264.229 223.801,265.206 218.907,265.431 215.757 C 265.813 210.388,265.942 210.058,267.490 210.488 C 311.177 222.617,363.762 200.169,386.372 159.739 C 430.512 80.809,363.434 -14.322,274.609 1.235 M314.844 16.268 C 405.060 40.290,410.806 163.697,323.142 194.467 C 239.094 223.968,165.570 124.582,218.098 52.476 C 239.958 22.468,280.768 7.195,314.844 16.268 M249.999 38.867 C 242.746 43.081,230.146 55.837,225.119 64.056 C 215.090 80.455,209.721 106.539,215.297 111.778 L 217.313 113.672 236.764 113.672 L 256.214 113.672 258.055 111.719 C 259.456 110.233,260.105 108.235,260.771 103.365 C 262.155 93.247,267.078 84.971,274.888 79.632 C 282.571 74.381,282.448 73.508,271.289 54.104 C 259.753 34.043,259.103 33.579,249.999 38.867 M326.625 36.926 C 324.402 38.061,306.287 68.948,306.264 71.643 C 306.239 74.640,307.795 76.874,311.831 79.632 C 319.674 84.994,324.644 93.529,326.028 104.013 C 327.344 113.977,326.587 113.672,350.000 113.672 L 369.405 113.672 371.421 111.778 C 376.396 107.105,372.265 83.227,363.843 67.969 C 353.822 49.815,333.911 33.207,326.625 36.926 M259.299 74.233 C 254.281 79.361,249.137 88.782,247.597 95.664 L 246.626 100.000 236.976 100.000 L 227.325 100.000 227.812 96.680 C 229.696 83.825,236.607 70.477,246.700 60.198 L 253.948 52.817 258.850 61.249 L 263.753 69.681 259.299 74.233 M341.146 61.174 C 350.697 71.384,359.375 89.706,359.375 99.660 C 359.375 99.847,355.005 100.000,349.665 100.000 L 339.955 100.000 339.055 95.669 C 337.668 88.986,332.631 79.707,327.500 74.381 L 322.986 69.696 327.688 61.485 L 332.389 53.274 334.435 54.730 C 335.560 55.531,338.580 58.431,341.146 61.174 M289.294 86.770 C 265.448 91.392,269.036 126.746,293.359 126.820 C 304.886 126.855,313.477 118.237,313.477 106.641 C 313.477 93.597,302.138 84.280,289.294 86.770 M297.411 102.480 C 302.158 106.940,297.388 114.468,291.184 112.305 C 286.923 110.820,286.000 104.520,289.638 101.758 C 291.635 100.241,295.400 100.591,297.411 102.480 M160.009 116.437 C 161.600 117.919,161.719 118.741,161.719 128.299 C 161.719 150.311,166.049 155.167,194.313 164.859 C 206.164 168.923,206.215 168.951,209.377 173.050 C 217.794 183.960,232.773 196.104,245.898 202.659 L 251.563 205.488 251.563 211.011 C 251.562 214.942,250.972 218.246,249.514 222.471 C 246.607 230.893,247.108 235.134,252.241 245.523 C 257.491 256.148,258.354 259.934,259.360 276.756 C 260.154 290.025,261.522 303.511,264.608 328.516 C 265.970 339.547,266.448 373.523,265.352 381.445 L 264.731 385.938 257.060 385.938 L 249.389 385.938 246.226 378.711 C 239.643 363.668,237.718 353.850,237.122 332.274 C 236.432 307.281,230.481 278.236,224.788 272.070 C 211.900 258.112,194.875 307.797,201.165 341.016 C 204.189 356.991,203.592 368.177,199.090 379.883 L 196.761 385.938 140.135 385.938 L 83.508 385.937 81.559 381.532 C 76.527 370.152,75.601 360.249,78.209 345.703 C 84.985 307.922,70.744 260.951,55.708 271.483 C 50.239 275.314,42.969 309.945,42.969 332.166 C 42.969 350.392,39.900 365.437,33.171 380.203 L 30.558 385.937 22.778 385.937 L 14.998 385.937 14.427 376.803 C 13.530 362.451,14.477 334.045,16.297 320.703 C 18.512 304.463,19.350 295.990,20.663 276.563 C 21.918 258.007,22.317 256.328,28.511 243.606 C 32.850 234.694,33.287 230.044,30.517 222.266 C 25.061 206.939,30.187 191.524,43.993 181.741 C 51.211 176.627,53.571 175.620,76.146 168.021 C 115.369 154.818,120.288 149.900,118.401 125.771 C 117.924 119.677,118.026 118.887,119.542 116.961 L 121.207 114.844 139.753 114.844 C 157.337 114.844,158.388 114.926,160.009 116.437 M269.377 135.196 C 266.914 136.632,250.000 167.325,250.000 170.359 C 250.000 182.406,291.962 191.265,315.157 184.114 C 340.169 176.402,340.810 174.741,327.644 151.746 C 316.759 132.734,315.701 131.935,307.151 136.267 C 298.809 140.495,287.924 140.502,279.605 136.286 C 275.681 134.298,271.653 133.869,269.377 135.196 M280.859 152.044 C 286.410 153.814,299.815 153.818,305.748 152.051 C 308.265 151.302,310.430 150.797,310.559 150.930 C 311.292 151.686,319.531 166.435,319.531 166.992 C 319.531 169.563,300.551 172.998,289.488 172.429 C 280.934 171.990,267.188 168.664,267.188 167.034 C 267.188 166.113,276.010 150.779,276.534 150.790 C 276.764 150.794,278.711 151.359,280.859 152.044 M96.378 180.601 C 93.520 181.985,92.969 184.631,92.969 196.963 C 92.969 209.937,93.340 211.301,97.329 212.967 C 103.830 215.684,107.031 211.809,107.031 201.223 L 107.031 193.750 114.800 193.750 C 124.408 193.750,126.918 192.294,126.918 186.719 C 126.918 180.528,124.894 179.677,110.308 179.740 C 103.564 179.769,97.296 180.157,96.378 180.601 M155.043 181.605 C 148.899 187.749,154.102 193.750,165.574 193.750 L 172.656 193.750 172.656 200.416 C 172.656 212.238,178.497 217.608,184.858 211.632 C 187.794 208.874,187.748 184.552,184.801 181.605 C 181.816 178.620,158.027 178.620,155.043 181.605 M135.096 208.534 C 133.118 210.512,132.813 211.400,132.813 215.174 L 132.813 219.531 128.456 219.531 C 120.658 219.531,116.976 225.750,121.554 231.190 C 123.392 233.375,123.997 233.594,128.194 233.594 L 132.813 233.594 132.813 237.831 C 132.813 243.589,135.406 246.875,139.949 246.875 C 144.789 246.875,146.875 244.297,146.875 238.317 L 146.875 233.594 151.598 233.594 C 157.533 233.594,160.171 231.492,160.131 226.793 C 160.089 221.763,157.232 219.531,150.833 219.531 L 146.875 219.531 146.850 215.039 C 146.805 206.887,140.328 203.302,135.096 208.534 M94.886 241.761 C 91.902 244.746,91.902 268.535,94.886 271.520 C 97.756 274.390,122.190 274.521,124.747 271.680 C 130.849 264.901,126.069 259.375,114.101 259.375 L 107.031 259.375 107.031 251.527 C 107.031 240.434,101.035 235.613,94.886 241.761 M174.941 241.858 C 173.250 243.656,173.018 244.697,172.781 251.553 L 172.514 259.233 164.704 259.499 C 153.875 259.869,149.204 265.681,155.043 271.520 C 157.798 274.275,181.237 274.511,184.660 271.818 L 186.719 270.199 186.719 256.641 L 186.719 243.082 184.660 241.463 C 181.692 239.128,177.342 239.305,174.941 241.858 M135.194 295.155 C 133.109 297.240,132.813 298.078,132.813 301.893 L 132.813 306.250 121.815 306.250 L 110.817 306.250 108.534 308.534 C 106.975 310.092,106.250 311.600,106.250 313.281 C 106.250 314.963,106.975 316.470,108.534 318.029 L 110.817 320.313 121.815 320.313 L 132.813 320.313 132.813 326.563 L 132.813 332.813 124.549 332.813 C 114.796 332.813,111.719 334.586,111.719 340.210 C 111.719 345.600,114.090 346.875,124.112 346.875 L 132.670 346.875 132.937 355.058 C 133.304 366.350,138.046 370.571,144.379 365.242 L 146.875 363.142 146.875 355.009 L 146.875 346.875 155.363 346.875 C 164.795 346.875,167.390 345.825,168.181 341.689 C 169.407 335.271,165.681 332.813,154.726 332.813 L 146.875 332.813 146.875 326.563 L 146.875 320.313 158.239 320.313 C 171.512 320.313,173.438 319.437,173.438 313.403 C 173.438 307.284,172.160 306.677,158.665 306.389 L 146.875 306.137 146.875 301.593 C 146.875 293.575,140.363 289.986,135.194 295.155 " stroke="none" fill="#ffda6bd1" fill-rule="evenodd"></path></g></svg>