<svg id="svg" xmlns="http://www.w3.org/2000/svg" xmlns:xlink="http://www.w3.org/1999/xlink" width="400" height="400" viewBox="0, 0, 400,400"><g id="svgg"><path id="path0" d="M315.625 53.297 L 315.625 77.097 301.352 77.593 C 242.017 79.658,210.438 101.104,148.698 181.264 C 93.800 252.542,79.191 261.719,20.620 261.719 L 0.000 261.719 0.000 289.844 L 0.000 317.969 26.958 317.969 C 54.456 317.969,62.891 317.335,74.609 314.386 C 115.895 303.999,145.068 279.899,194.160 215.625 C 243.767 150.676,263.723 135.755,302.539 134.588 L 315.625 134.195 315.625 154.272 C 315.625 166.698,315.910 174.250,316.372 174.089 C 317.954 173.537,399.997 102.763,399.952 101.990 C 399.910 101.285,321.333 33.508,317.150 30.569 C 315.647 29.513,315.625 29.845,315.625 53.297 M0.000 109.674 L 0.000 138.281 23.633 138.284 C 63.903 138.290,79.532 143.429,101.953 164.038 C 104.102 166.013,106.444 168.074,107.158 168.619 C 108.301 169.490,109.698 167.990,118.825 156.093 C 124.528 148.660,132.001 139.063,135.432 134.766 C 138.863 130.469,142.014 126.503,142.434 125.954 C 144.734 122.944,119.233 103.950,101.172 95.219 C 78.138 84.084,66.945 81.968,28.320 81.448 L 0.000 81.067 0.000 109.674 M315.625 245.638 L 315.625 265.625 308.008 265.619 C 279.850 265.595,260.403 257.429,238.465 236.416 C 234.914 233.014,231.903 230.373,231.775 230.545 C 225.529 238.944,208.817 260.403,203.650 266.657 L 196.667 275.111 199.700 278.262 C 226.497 306.088,263.810 321.875,302.780 321.875 L 315.603 321.875 315.809 346.208 L 316.016 370.541 357.959 334.685 C 381.027 314.964,399.924 298.460,399.951 298.010 C 399.997 297.237,317.955 226.464,316.372 225.911 C 315.910 225.750,315.625 233.269,315.625 245.638 " stroke="none" fill="#ffda6bd1" fill-rule="evenodd"></path></g></svg>